<?xml version="1.0" encoding="utf-8"?><!-- Uploaded to: SVG Repo, www.svgrepo.com, Generator: SVG Repo Mixer Tools -->
<svg fill="#000000" width="800px" height="800px" viewBox="0 0 24 24" id="barcode-scan" data-name="Flat Color" xmlns="http://www.w3.org/2000/svg" class="icon flat-color"><path id="secondary" d="M16,18a1,1,0,0,1-1-1V16a1,1,0,0,1,2,0v1A1,1,0,0,1,16,18Zm-4,0a1,1,0,0,1-1-1V16a1,1,0,0,1,2,0v1A1,1,0,0,1,12,18ZM8,18a1,1,0,0,1-1-1V16a1,1,0,0,1,2,0v1A1,1,0,0,1,8,18Zm12-5H4a1,1,0,0,1,0-2H20a1,1,0,0,1,0,2ZM16,9a1,1,0,0,1-1-1V7a1,1,0,0,1,2,0V8A1,1,0,0,1,16,9ZM12,9a1,1,0,0,1-1-1V7a1,1,0,0,1,2,0V8A1,1,0,0,1,12,9ZM8,9A1,1,0,0,1,7,8V7A1,1,0,0,1,9,7V8A1,1,0,0,1,8,9Z" style="fill: rgb(44, 169, 188);"></path><path id="primary" d="M3,9A1,1,0,0,1,2,8V4A2,2,0,0,1,4,2H8A1,1,0,0,1,8,4H4V8A1,1,0,0,1,3,9ZM22,8V4a2,2,0,0,0-2-2H16a1,1,0,0,0,0,2h4V8a1,1,0,0,0,2,0ZM9,21a1,1,0,0,0-1-1H4V16a1,1,0,0,0-2,0v4a2,2,0,0,0,2,2H8A1,1,0,0,0,9,21Zm13-1V16a1,1,0,0,0-2,0v4H16a1,1,0,0,0,0,2h4A2,2,0,0,0,22,20Z" style="fill: rgb(0, 0, 0);"></path></svg>