<?xml version="1.0" encoding="iso-8859-1"?>
<!-- Uploaded to: SVG Repo, www.svgrepo.com, Generator: SVG Repo Mixer Tools -->
<svg version="1.1" id="Layer_1" xmlns="http://www.w3.org/2000/svg" xmlns:xlink="http://www.w3.org/1999/xlink" 
	 viewBox="0 0 511.999 511.999" xml:space="preserve">
<path style="fill:#E1C3A0;" d="M335.673,39.404l80.111-0.15c17.624-0.033,32.071,14.36,32.104,31.984l0.753,400.547
	c0.033,17.624-14.36,32.071-31.984,32.104L96.22,504.49c-17.624,0.033-32.071-14.36-32.104-31.984L63.363,71.959
	c-0.033-17.624,14.36-32.071,31.984-32.104l80.109-0.15"/>
<polyline style="fill:#EFF2FA;" points="367.779,71.387 415.845,71.296 416.407,367.087 312.675,472.031 96.159,472.446 
	95.406,71.899 143.472,71.808 "/>
<circle style="fill:#B4E1FA;" cx="156.095" cy="396.232" r="28.038"/>
<path style="fill:#C7CFE2;" d="M303.601,23.442l-25.505,0.048c-3.329-9.307-12.143-16-22.591-15.98
	c-10.449,0.02-19.238,6.745-22.531,16.064l-25.505,0.048c-17.697,0.033-32.017,14.407-31.984,32.104l0.06,32.044l160.219-0.301
	l-0.03-16.022l-0.03-16.022C335.672,37.728,321.298,23.409,303.601,23.442z"/>
<rect x="175.512" y="63.086" style="fill:#AFB9D2;" width="160.219" height="24.534"/>
<path d="M455.399,71.222c-0.02-10.53-4.163-20.445-11.665-27.919c-7.485-7.457-17.386-11.56-27.887-11.56c-0.025,0-0.051,0-0.076,0
	l-80.111,0.15c-0.092,0-0.182,0.011-0.273,0.014c-7.227-9.687-18.784-15.976-31.798-15.976l-20.709,0.039
	C277.34,6.239,266.93,0,255.49,0c-11.414,0.021-21.818,6.301-27.327,16.073l-20.708,0.039c-13.008,0.024-24.555,6.36-31.749,16.095
	c-0.084-0.003-0.165-0.013-0.25-0.013c-0.005,0-0.01,0-0.015,0l-80.11,0.15c-21.81,0.041-39.52,17.818-39.48,39.628l0.753,400.548
	c0.02,10.529,4.163,20.445,11.665,27.919c7.485,7.456,17.385,11.56,27.887,11.56c0.025,0,0.051,0,0.076,0l320.437-0.603
	c10.53-0.02,20.446-4.163,27.92-11.665c7.474-7.502,11.58-17.434,11.56-27.963L455.399,71.222z M190.149,38.351
	c4.625-4.642,10.782-7.206,17.335-7.218l25.505-0.048c3.178-0.006,6.008-2.012,7.067-5.008c2.332-6.6,8.547-11.043,15.496-11.056
	c6.902,0,13.122,4.42,15.474,10.998c1.068,2.988,3.899,4.982,7.072,4.982c0.004,0,0.009,0,0.014,0l25.552-0.048
	c13.501,0,24.507,10.985,24.533,24.487l0.046,24.534l-145.199,0.272l-0.046-24.534C182.984,49.159,185.524,42.994,190.149,38.351z
	 M433.95,489.132c-4.642,4.66-10.789,7.233-17.307,7.245l-320.438,0.603c-0.016,0-0.031,0-0.047,0
	c-13.506,0-24.508-10.975-24.533-24.487L70.873,71.944c-0.025-13.527,10.96-24.555,24.487-24.58l73.532-0.138
	c-0.599,2.745-0.922,5.591-0.916,8.514l0.061,32.044c0.008,4.144,3.369,7.496,7.51,7.496c0.005,0,0.01,0,0.015,0l160.219-0.301
	c1.992-0.004,3.9-0.798,5.306-2.21c1.406-1.411,2.193-3.323,2.19-5.315l-0.06-32.044c-0.005-2.922-0.339-5.767-0.95-8.51
	l73.534-0.138c0.016,0,0.031,0,0.047,0c6.5,0,12.638,2.548,17.287,7.181c4.66,4.642,7.234,10.789,7.246,17.307l0.753,400.547
	C441.143,478.315,438.593,484.471,433.95,489.132z"/>
<path d="M423.355,71.282c-0.004-1.992-0.798-3.9-2.21-5.306c-1.408-1.402-3.314-2.19-5.3-2.19c-0.004,0-0.009,0-0.014,0
	l-48.066,0.09c-4.148,0.008-7.504,3.377-7.496,7.524c0.008,4.144,3.369,7.496,7.51,7.496c0.005,0,0.01,0,0.015,0l40.555-0.076
	l0.529,281.384l-80.61,0.151c-12.976,0.024-23.512,10.6-23.488,23.576l0.09,48.065c0.008,4.144,3.369,7.496,7.51,7.496
	c0.005,0,0.01,0,0.015,0c4.148-0.008,7.504-3.377,7.496-7.524l-0.09-48.065c-0.009-4.693,3.802-8.519,8.496-8.528l69.989-0.131
	l-88.956,89.29l-205.674,0.387l-0.725-385.526l40.555-0.076c4.148-0.008,7.504-3.377,7.496-7.524
	c-0.008-4.143-3.369-7.496-7.51-7.496c-0.005,0-0.01,0-0.015,0l-48.066,0.09c-4.148,0.008-7.504,3.377-7.496,7.524l0.753,400.547
	c0.008,4.143,3.369,7.496,7.51,7.496c0.005,0,0.01,0,0.015,0l216.297-0.407c0.056,0,0.11-0.007,0.165-0.009
	c0.189-0.005,0.379-0.011,0.567-0.03c0.123-0.012,0.243-0.035,0.366-0.053c0.12-0.018,0.24-0.032,0.359-0.055
	c0.137-0.027,0.27-0.064,0.406-0.099c0.102-0.026,0.205-0.049,0.306-0.079c0.134-0.041,0.264-0.09,0.395-0.138
	c0.099-0.036,0.2-0.069,0.298-0.11c0.125-0.052,0.246-0.113,0.368-0.171c0.099-0.048,0.2-0.092,0.297-0.144
	c0.122-0.065,0.237-0.139,0.355-0.21c0.092-0.056,0.185-0.108,0.275-0.168c0.136-0.091,0.265-0.191,0.396-0.291
	c0.065-0.05,0.132-0.094,0.195-0.146c0.198-0.162,0.388-0.334,0.568-0.516l103.934-104.326c0.017-0.017,0.029-0.036,0.046-0.053
	c0.212-0.217,0.408-0.45,0.592-0.691c0.055-0.071,0.109-0.142,0.161-0.216c0.184-0.259,0.356-0.528,0.508-0.811
	c0.018-0.033,0.032-0.068,0.049-0.102c0.135-0.262,0.252-0.535,0.356-0.813c0.025-0.068,0.051-0.134,0.074-0.202
	c0.105-0.309,0.195-0.625,0.26-0.95c0.004-0.018,0.005-0.037,0.008-0.056c0.056-0.295,0.09-0.598,0.111-0.904
	c0.006-0.09,0.01-0.179,0.013-0.269c0.003-0.083,0.012-0.165,0.012-0.248L423.355,71.282z"/>
<path d="M255.566,47.069c1.973,0,3.915-0.811,5.307-2.203c1.402-1.402,2.203-3.335,2.203-5.317c0-1.973-0.801-3.905-2.203-5.307
	c-1.392-1.392-3.335-2.193-5.307-2.193s-3.915,0.801-5.307,2.193c-1.402,1.402-2.203,3.335-2.203,5.307
	c0,1.983,0.801,3.915,2.203,5.317C251.651,46.258,253.584,47.069,255.566,47.069z"/>
<path d="M287.805,151.146c0.005,0,0.01,0,0.015,0l80.11-0.15c4.148-0.008,7.504-3.377,7.496-7.524
	c-0.008-4.144-3.369-7.496-7.51-7.496c-0.005,0-0.01,0-0.015,0l-80.11,0.15c-4.148,0.008-7.504,3.377-7.496,7.524
	C280.302,147.793,283.663,151.146,287.805,151.146z"/>
<path d="M223.777,183.311c0.005,0,0.01,0,0.015,0l144.197-0.271c4.148-0.008,7.504-3.377,7.496-7.524
	c-0.008-4.144-3.369-7.496-7.51-7.496c-0.005,0-0.01,0-0.015,0l-144.197,0.271c-4.148,0.008-7.504,3.377-7.496,7.524
	C216.275,179.957,219.636,183.311,223.777,183.311z"/>
<path d="M368.095,232.106c-0.005,0-0.01,0-0.015,0l-224.307,0.422c-4.148,0.008-7.504,3.377-7.496,7.524
	c0.008,4.144,3.369,7.496,7.51,7.496c0.005,0,0.01,0,0.015,0l224.307-0.422c4.148-0.008,7.504-3.377,7.496-7.524
	C375.598,235.459,372.237,232.106,368.095,232.106z"/>
<path d="M368.155,264.15c-0.005,0-0.01,0-0.015,0l-224.307,0.422c-4.148,0.008-7.504,3.377-7.496,7.524
	c0.008,4.144,3.369,7.496,7.51,7.496c0.005,0,0.01,0,0.015,0l224.307-0.422c4.148-0.008,7.504-3.377,7.496-7.524
	C375.658,267.503,372.297,264.15,368.155,264.15z"/>
<path d="M368.215,296.194c-0.005,0-0.01,0-0.015,0l-224.307,0.422c-4.148,0.008-7.504,3.377-7.496,7.524
	c0.008,4.144,3.369,7.496,7.51,7.496c0.005,0,0.01,0,0.015,0l224.307-0.422c4.148-0.008,7.504-3.377,7.496-7.524
	C375.718,299.547,372.357,296.194,368.215,296.194z"/>
<path d="M375.786,335.734c-0.008-4.144-3.369-7.496-7.51-7.496c-0.005,0-0.01,0-0.015,0l-224.307,0.422
	c-4.148,0.008-7.504,3.377-7.496,7.524c0.008,4.144,3.369,7.496,7.51,7.496c0.005,0,0.01,0,0.015,0l224.307-0.422
	C372.438,343.25,375.794,339.882,375.786,335.734z"/>
<path d="M216.142,375.589l64.088-0.121c4.148-0.008,7.504-3.377,7.496-7.524c-0.008-4.143-3.369-7.496-7.51-7.496
	c-0.005,0-0.01,0-0.015,0l-64.088,0.121c-4.148,0.008-7.504,3.377-7.496,7.524c0.008,4.143,3.369,7.496,7.51,7.496
	C216.133,375.589,216.138,375.589,216.142,375.589z"/>
<path d="M216.188,407.632c0.005,0,0.01,0,0.015,0l64.088-0.121c4.148-0.008,7.504-3.377,7.496-7.524
	c-0.008-4.143-3.369-7.496-7.51-7.496c-0.005,0-0.01,0-0.015,0l-64.088,0.121c-4.148,0.008-7.504,3.377-7.496,7.524
	C208.685,404.279,212.047,407.632,216.188,407.632z"/>
<path d="M136.097,143.922c0.008,4.144,3.369,7.496,7.51,7.496c0.005,0,0.01,0,0.015,0l40.055-0.075
	c4.148-0.008,7.504-3.377,7.496-7.524c-0.008-4.144-3.369-7.496-7.51-7.496c-0.005,0-0.01,0-0.015,0l-40.055,0.075
	C139.446,136.404,136.09,139.774,136.097,143.922z"/>
<path d="M130.915,371.139c-6.701,6.726-10.382,15.66-10.365,25.156c0.037,19.565,15.984,35.483,35.549,35.483
	c0.005,0,0.063,0,0.067,0c19.602-0.037,35.519-16.014,35.482-35.616c-0.037-19.565-15.983-35.482-35.615-35.482
	C146.536,360.698,137.617,364.413,130.915,371.139z M176.627,396.191c0.021,11.319-9.171,20.545-20.489,20.567l-0.039,7.51v-7.51
	c-11.297,0-20.506-9.192-20.528-20.49c-0.01-5.484,2.115-10.642,5.985-14.527c3.87-3.884,9.021-6.029,14.545-6.039
	C167.398,375.702,176.605,384.892,176.627,396.191z"/>
</svg>