<?xml version="1.0" encoding="iso-8859-1"?>
<!-- Uploaded to: SVG Repo, www.svgrepo.com, Generator: SVG Repo Mixer Tools -->
<svg version="1.1" id="Layer_1" xmlns="http://www.w3.org/2000/svg" xmlns:xlink="http://www.w3.org/1999/xlink" 
	 viewBox="0 0 512 512" xml:space="preserve">
<rect x="122.727" y="468.959" style="fill:#808080;" width="266.546" height="32.841"/>
<g>
	<rect x="256" y="10.199" style="fill:#CCCCCC;" width="164.207" height="458.76"/>
	<rect x="91.791" y="10.199" style="fill:#CCCCCC;" width="164.207" height="458.76"/>
</g>
<g>
	<path style="fill:#4D3D36;" d="M91.791,0c-5.632,0-10.199,4.567-10.199,10.199v458.76c0,5.632,4.567,10.199,10.199,10.199h20.739
		v22.642c0,5.632,4.567,10.199,10.199,10.199h266.542c5.632,0,10.199-4.567,10.199-10.199v-22.642h20.739
		c5.632,0,10.199-4.567,10.199-10.199V10.199C430.408,4.567,425.841,0,420.209,0H91.791z M101.99,458.76V20.398h143.811V458.76
		H101.99z M379.072,479.159v12.443H132.928v-12.443H379.072z M266.199,458.76V20.398H410.01V458.76H266.199z"/>
	<path style="fill:#4D3D36;" d="M288.841,307.765c5.632,0,10.199-4.567,10.199-10.199v-4.852c0-5.632-4.567-10.199-10.199-10.199
		c-5.632,0-10.199,4.567-10.199,10.199v4.852C278.642,303.198,283.209,307.765,288.841,307.765z"/>
	<path style="fill:#4D3D36;" d="M288.841,268.236c5.632,0,10.199-4.567,10.199-10.199v-73.366c0-5.632-4.567-10.199-10.199-10.199
		c-5.632,0-10.199,4.567-10.199,10.199v73.366C278.642,263.67,283.209,268.236,288.841,268.236z"/>
	<path style="fill:#4D3D36;" d="M223.159,307.765c5.632,0,10.199-4.567,10.199-10.199V184.671c0-5.632-4.567-10.199-10.199-10.199
		s-10.199,4.567-10.199,10.199v112.894C212.959,303.198,217.526,307.765,223.159,307.765z"/>
</g>
</svg>