<?xml version="1.0" encoding="utf-8"?>

<!DOCTYPE svg PUBLIC "-//W3C//DTD SVG 1.1//EN" "http://www.w3.org/Graphics/SVG/1.1/DTD/svg11.dtd">
<!-- Uploaded to: SVG Repo, www.svgrepo.com, Generator: SVG Repo Mixer Tools -->
<svg height="800px" width="800px" version="1.1" id="_x32_" xmlns="http://www.w3.org/2000/svg" xmlns:xlink="http://www.w3.org/1999/xlink" 
	 viewBox="0 0 512 512"  xml:space="preserve">
<style type="text/css">
	.st0{fill:#000000;}
</style>
<g>
	<path class="st0" d="M96.654,148.337l-21.931-8.272c-20.053-7.547-42.428,2.588-49.976,22.625
		c-7.547,20.053,2.588,42.42,22.633,49.968l49.274,18.569V148.337z"/>
	<path class="st0" d="M389.449,164.302c-0.225,0.79-0.443,1.533-0.66,2.314V435.65c0,7.45-3.056,14.295-7.943,19.166
		c-4.878,4.902-11.724,7.95-19.182,7.95H162.981c0.968-1.58,1.847-3.226,2.524-5.031c1.29-3.46,1.903-6.967,1.903-10.418
		c0-5.943-1.822-11.756-5.128-16.626c-3.306-4.87-8.055-8.756-13.998-10.998l-30.575-11.515h-0.008
		c-3.442-1.298-6.942-1.919-10.401-1.919c-5.95,0-11.764,1.822-16.626,5.136c-4.87,3.314-8.773,8.055-11.014,13.998
		c-1.281,3.426-1.902,6.942-1.902,10.393c0,5.966,1.838,11.772,5.136,16.642c3.314,4.854,8.064,8.773,13.998,10.998l30.583,11.515
		c3.443,1.306,6.95,1.919,10.402,1.919c5.959,0,11.764-1.839,16.626-5.128c0.846-0.572,1.612-1.242,2.394-1.903
		c24.455,20.545,62.747,40.752,119.697,42.106c118.979,2.815,150.619-85.331,167.809-181.984c0,0,41.058-185.128,43.84-194.901
		C502.164,86.13,415.905,71.374,389.449,164.302z"/>
	<path class="st0" d="M142.985,248.255V44.032h199.482v326.685H171.569c-0.396,3.467-1.186,6.926-2.468,10.337
		c-3.233,8.604-8.982,15.61-16.07,20.424c-1.862,1.258-3.805,2.362-5.821,3.314l5.854,2.21c8.602,3.233,15.626,8.981,20.432,16.062
		c3.91,5.756,6.369,12.4,7.159,19.367h181.009c1.91,0,3.54-0.742,4.798-1.984c1.241-1.257,1.983-2.902,1.983-4.797V6.781
		c0-1.911-0.742-3.531-1.983-4.79c-1.258-1.249-2.888-1.983-4.798-1.992H123.779c-1.903,0.008-3.532,0.742-4.79,1.992
		c-1.242,1.258-1.976,2.879-1.983,4.79v230.613l17.755,6.668C137.703,245.191,140.445,246.602,142.985,248.255z M242.725,420.741
		c-6.563,0-11.869-5.321-11.869-11.877c0-6.555,5.306-11.86,11.869-11.86c6.548,0,11.869,5.306,11.869,11.86
		C254.594,415.42,249.273,420.741,242.725,420.741z"/>
	<path class="st0" d="M118.377,393.487c3.45,1.291,6.958,1.903,10.401,1.903c5.959,0,11.764-1.822,16.626-5.128
		c4.87-3.306,8.764-8.063,11.006-13.998c1.299-3.451,1.912-6.95,1.912-10.402c0-5.958-1.831-11.772-5.128-16.626
		c-3.314-4.862-8.064-8.772-13.99-11.006l-30.591-11.523c-3.443-1.29-6.95-1.902-10.402-1.902c-5.959,0-11.764,1.822-16.626,5.128
		c-4.862,3.306-8.764,8.063-11.006,14.013c-1.306,3.427-1.911,6.926-1.919,10.386c0,5.966,1.839,11.772,5.136,16.626
		c3.314,4.87,8.062,8.773,14.006,11.014L118.377,393.487z"/>
	<path class="st0" d="M109.161,312.018c3.45,1.306,6.958,1.919,10.409,1.919c5.951,0,11.772-1.822,16.635-5.128
		c4.862-3.314,8.764-8.064,10.998-13.998c1.298-3.46,1.903-6.958,1.903-10.418c0.008-5.951-1.822-11.756-5.12-16.626
		c-3.314-4.862-8.071-8.757-14.005-10.999l-30.583-11.514c-3.443-1.306-6.943-1.919-10.402-1.919
		c-5.959,0-11.764,1.822-16.626,5.144c-4.862,3.299-8.764,8.064-11.014,13.998c-1.282,3.435-1.895,6.95-1.895,10.401
		c0,5.95,1.822,11.756,5.128,16.626c3.306,4.862,8.064,8.764,14.006,11.014L109.161,312.018z"/>
	<path class="st0" d="M242.725,295.505c40.461,0,73.254-32.801,73.254-73.262c0-40.469-32.793-73.261-73.254-73.261
		c-40.476,0-73.261,32.792-73.269,73.261C169.464,262.704,202.249,295.505,242.725,295.505z M285.621,265.131
		c-6.337,6.33-14.022,11.24-22.608,14.28c4.12-4.966,7.531-11.336,10.216-18.706h16.408
		C288.37,262.237,287.025,263.728,285.621,265.131z M294.273,254.206h-18.941c2.428-8.66,3.886-18.384,4.153-28.712h23.802
		C302.748,235.999,299.498,245.788,294.273,254.206z M303.288,219.002h-23.827c-0.249-10.336-1.677-20.061-4.112-28.704h18.924
		C299.498,198.699,302.748,208.488,303.288,219.002z M285.621,179.364c1.404,1.404,2.749,2.887,4.016,4.419h-16.408
		c-1.154-3.193-2.452-6.209-3.886-8.982c-1.863-3.628-3.991-6.91-6.314-9.724C271.608,168.132,279.291,173.042,285.621,179.364z
		 M245.975,161.674c1.016,0.064,2.016,0.129,3.024,0.234c1.58,0.726,3.169,1.685,4.733,2.968c4.774,3.886,9.2,10.474,12.562,18.908
		h-20.319V161.674z M245.975,190.298h22.569c2.596,8.434,4.169,18.222,4.45,28.704h-27.019V190.298z M245.975,225.493h26.995
		c-0.298,10.49-1.871,20.27-4.435,28.712h-22.56V225.493z M245.975,260.704h20.278c-0.831,2.113-1.717,4.16-2.677,5.999
		c-2.878,5.58-6.281,9.998-9.845,12.908c-1.564,1.282-3.152,2.258-4.733,2.976c-1.008,0.097-2.008,0.178-3.024,0.226V260.704z
		 M199.838,265.131c-1.419-1.403-2.782-2.894-4.015-4.426h16.383c1.169,3.193,2.443,6.201,3.887,8.982
		c1.879,3.661,3.984,6.902,6.314,9.724C213.835,276.371,206.144,271.46,199.838,265.131z M239.476,282.813
		c-1.016-0.048-2.024-0.129-3.04-0.226c-1.58-0.717-3.177-1.693-4.741-2.976c-4.773-3.894-9.184-10.482-12.562-18.908h20.343
		V282.813z M239.476,254.206h-22.593c-2.572-8.442-4.16-18.239-4.426-28.712h27.02V254.206z M239.476,219.002h-27.011
		c0.266-10.482,1.87-20.271,4.443-28.704h22.568V219.002z M231.695,164.875c1.564-1.282,3.16-2.242,4.741-2.968
		c1.016-0.105,2.024-0.169,3.04-0.234v22.109h-20.303c0.83-2.096,1.726-4.136,2.693-5.999
		C224.745,172.204,228.131,167.785,231.695,164.875z M199.838,179.364c6.306-6.321,14.014-11.248,22.577-14.287
		c-4.089,4.966-7.531,11.353-10.209,18.706h-16.383C197.056,182.251,198.419,180.767,199.838,179.364z M191.154,190.298h18.949
		c-2.436,8.643-3.886,18.368-4.153,28.704h-23.81C182.695,208.488,185.929,198.699,191.154,190.298z M205.974,225.493
		c0.266,10.328,1.669,20.053,4.128,28.712h-18.949c-5.225-8.418-8.458-18.207-9.015-28.712H205.974z"/>
</g>
</svg>