<?xml version="1.0" encoding="iso-8859-1"?>
<!-- Uploaded to: SVG Repo, www.svgrepo.com, Generator: SVG Repo Mixer Tools -->
<!DOCTYPE svg PUBLIC "-//W3C//DTD SVG 1.1//EN" "http://www.w3.org/Graphics/SVG/1.1/DTD/svg11.dtd">
<svg fill="#000000" version="1.1" id="Capa_1" xmlns="http://www.w3.org/2000/svg" xmlns:xlink="http://www.w3.org/1999/xlink" 
	 width="800px" height="800px" viewBox="0 0 281.067 281.066"
	 xml:space="preserve">
<g>
	<g>
		<path d="M267.574,80.837L138.99,123.17l-61.612-108C96.395,5.555,117.799,0.003,140.54,0.003
			C196.657,0.003,245.068,33.155,267.574,80.837z"/>
		<path d="M0,140.536C0,96.098,20.771,56.505,53.064,30.738l64.212,112.569l-20.377,130.73C40.722,255.627,0,202.785,0,140.536z"/>
		<path d="M140.54,281.063c-5.222,0-10.344-0.336-15.417-0.889l20.071-128.701l131.94-43.417
			c2.474,10.436,3.934,21.281,3.934,32.474C281.067,218.025,218.028,281.063,140.54,281.063z"/>
	</g>
</g>
</svg>