<?xml version="1.0" encoding="utf-8"?><!-- Uploaded to: SVG Repo, www.svgrepo.com, Generator: SVG Repo Mixer Tools -->
<svg version="1.1" id="Uploaded to svgrepo.com" xmlns="http://www.w3.org/2000/svg" xmlns:xlink="http://www.w3.org/1999/xlink" 
	 width="800px" height="800px" viewBox="0 0 32 32" xml:space="preserve">
<style type="text/css">
	.stone_een{fill:#111918;}
	.st0{fill:#0B1719;}
</style>
<path class="stone_een" d="M27.882,23L26.312,9.649C26.134,8.139,24.854,7,23.332,7H22v2h0.5C22.776,9,23,9.224,23,9.5
	S22.776,10,22.5,10h-11C11.224,10,11,9.776,11,9.5S11.224,9,11.5,9H12V7h-1.332C9.146,7,7.866,8.139,7.688,9.649L6.118,23H27.882z
	 M20,13c0.552,0,1,0.448,1,1c0,0.552-0.448,1-1,1s-1-0.448-1-1C19,13.448,19.448,13,20,13z M20,16c0.552,0,1,0.448,1,1
	c0,0.552-0.448,1-1,1s-1-0.448-1-1C19,16.448,19.448,16,20,16z M20,19c0.552,0,1,0.448,1,1c0,0.552-0.448,1-1,1s-1-0.448-1-1
	C19,19.448,19.448,19,20,19z M17,13c0.552,0,1,0.448,1,1c0,0.552-0.448,1-1,1s-1-0.448-1-1C16,13.448,16.448,13,17,13z M17,16
	c0.552,0,1,0.448,1,1c0,0.552-0.448,1-1,1s-1-0.448-1-1C16,16.448,16.448,16,17,16z M17,19c0.552,0,1,0.448,1,1c0,0.552-0.448,1-1,1
	s-1-0.448-1-1C16,19.448,16.448,19,17,19z M14,13c0.552,0,1,0.448,1,1c0,0.552-0.448,1-1,1s-1-0.448-1-1C13,13.448,13.448,13,14,13z
	 M14,16c0.552,0,1,0.448,1,1c0,0.552-0.448,1-1,1s-1-0.448-1-1C13,16.448,13.448,16,14,16z M14,19c0.552,0,1,0.448,1,1
	c0,0.552-0.448,1-1,1s-1-0.448-1-1C13,19.448,13.448,19,14,19z M20,1h-6c-0.552,0-1,0.448-1,1v5v2h8V7V2C21,1.448,20.552,1,20,1z
	 M18.5,7h-3C15.224,7,15,6.776,15,6.5S15.224,6,15.5,6h3C18.776,6,19,6.224,19,6.5S18.776,7,18.5,7z M18.5,5h-3
	C15.224,5,15,4.776,15,4.5S15.224,4,15.5,4h3C18.776,4,19,4.224,19,4.5S18.776,5,18.5,5z M6,28c0,1.657,1.343,3,3,3h16
	c1.657,0,3-1.343,3-3v-4H6V28z M14.5,27h5c0.276,0,0.5,0.224,0.5,0.5S19.776,28,19.5,28h-5c-0.276,0-0.5-0.224-0.5-0.5
	S14.224,27,14.5,27z"/>
</svg>