<!DOCTYPE svg PUBLIC "-//W3C//DTD SVG 1.1//EN" "http://www.w3.org/Graphics/SVG/1.1/DTD/svg11.dtd">
<!-- Uploaded to: SVG Repo, www.svgrepo.com, Transformed by: SVG Repo Mixer Tools -->
<svg height="800px" width="800px" version="1.1" id="Layer_1" xmlns="http://www.w3.org/2000/svg" xmlns:xlink="http://www.w3.org/1999/xlink" viewBox="0 0 392.54 392.54" xml:space="preserve" fill="#000000">
<g id="SVGRepo_bgCarrier" stroke-width="0"/>
<g id="SVGRepo_tracerCarrier" stroke-linecap="round" stroke-linejoin="round"/>
<g id="SVGRepo_iconCarrier"> <path style="fill:#FFFFFF;" d="M332.06,106.218c0-6.012-4.848-10.925-10.925-10.925h-18.618c0.388,3.879,0.711,7.758,0.711,11.636 c0,58.958-47.968,106.925-106.925,106.925S89.377,165.951,89.377,106.993c0-3.943,0.259-7.887,0.711-11.636H71.341 c-6.012,0-10.925,4.848-10.925,10.925v182.82h271.58V106.218H332.06z"/> <g> <path style="fill:#56ACE0;" d="M337.555,310.824H54.921l-30.642,40.21c-2.844,3.814-3.297,8.663-1.228,12.929 c2.069,4.267,6.271,6.853,11.055,6.853h324.267c4.784,0,8.857-2.521,11.055-6.853c2.069-4.267,1.681-9.115-1.228-12.929 L337.555,310.824z"/> <path style="fill:#56ACE0;" d="M196.238,74.605c-7.887,0-15.774-0.388-23.596-1.034c-1.099,6.982-1.875,14.481-2.263,22.562h51.588 c-0.388-8.145-1.164-15.58-2.263-22.562C212.012,74.218,204.125,74.605,196.238,74.605z"/> <path style="fill:#56ACE0;" d="M243.818,96.133h36.784c-1.487-11.378-5.172-22.044-10.667-31.547 c-9.438,2.521-18.941,4.655-28.509,6.271C242.654,79.066,243.559,87.535,243.818,96.133z"/> <path style="fill:#56ACE0;" d="M162.622,28.836c-9.503,4.073-18.166,9.956-25.471,17.067c6.012,1.422,12.154,2.651,18.23,3.62 C157.385,41.959,159.777,34.977,162.622,28.836z"/> <path style="fill:#56ACE0;" d="M177.361,52.044c12.606,0.905,25.212,0.905,37.818,0c-5.689-19.329-13.576-30.125-18.877-30.125 C190.937,21.854,183.115,32.779,177.361,52.044z"/> <path style="fill:#56ACE0;" d="M237.095,49.458c6.077-1.034,12.154-2.133,18.166-3.62c-7.37-7.111-15.903-12.929-25.406-17.002 C232.699,34.977,235.091,41.959,237.095,49.458z"/> <path style="fill:#56ACE0;" d="M111.874,96.133h36.784c0.388-8.598,1.164-17.067,2.327-25.277 c-9.568-1.552-19.071-3.62-28.509-6.206C117.046,74.153,113.297,84.755,111.874,96.133z"/> <path style="fill:#56ACE0;" d="M280.602,117.919h-36.784c-0.388,8.598-1.164,17.067-2.392,25.277 c9.568,1.552,19.071,3.62,28.509,6.206C275.43,139.898,279.179,129.232,280.602,117.919z"/> <path style="fill:#56ACE0;" d="M111.874,117.919c1.487,11.378,5.172,22.044,10.667,31.547c9.438-2.521,18.941-4.655,28.509-6.206 c-1.228-8.21-2.004-16.679-2.392-25.277h-36.784V117.919z"/> <path style="fill:#56ACE0;" d="M229.854,185.28c9.503-4.073,18.166-9.956,25.471-17.067c-6.012-1.422-12.154-2.651-18.23-3.62 C235.091,172.157,232.699,179.009,229.854,185.28z"/> <path style="fill:#56ACE0;" d="M222.032,117.919h-51.588c0.388,8.145,1.164,15.709,2.263,22.626 c15.709-1.293,31.418-1.293,47.127,0C220.868,133.563,221.644,126.064,222.032,117.919z"/> <path style="fill:#56ACE0;" d="M162.622,185.216c-2.844-6.206-5.236-13.123-7.24-20.622c-6.077,1.034-12.154,2.133-18.166,3.62 C144.521,175.325,153.119,181.143,162.622,185.216z"/> <path style="fill:#56ACE0;" d="M196.238,192.133c5.301,0,13.188-10.925,18.877-30.19c-12.606-0.905-25.212-0.905-37.818,0 C183.115,181.337,190.937,192.133,196.238,192.133z"/> </g> <g> <path style="fill:#194F82;" d="M385.458,337.846l-31.612-41.568V106.218c0-18.036-14.675-32.711-32.711-32.711h-23.402 C283.575,30.84,243.495,0.003,196.173,0.003S108.771,30.84,94.614,73.506H71.212c-18.036,0-32.711,14.675-32.711,32.711v189.996 L6.888,337.781c-7.758,10.408-9.115,24.178-3.297,35.814c5.818,11.636,17.519,18.941,30.578,18.941h324.267 c13.059,0,24.824-7.24,30.578-18.941C394.767,361.959,393.41,348.254,385.458,337.846z M369.426,363.963 c-2.069,4.267-6.271,6.853-11.055,6.853H34.105c-4.784,0-8.857-2.521-11.055-6.853c-2.069-4.267-1.616-9.115,1.228-12.929 l30.578-40.21h282.634l30.578,40.21C371.042,354.848,371.495,359.696,369.426,363.963z M60.416,106.218 c0-6.012,4.848-10.925,10.925-10.925h18.618c-0.388,3.879-0.711,7.758-0.711,11.636c0,58.958,47.968,106.925,106.925,106.925 s106.925-47.903,106.925-106.861c0-3.943-0.259-7.887-0.711-11.636h18.618c6.012,0,10.925,4.848,10.925,10.925v182.82H60.416 L60.416,106.218L60.416,106.218z M241.426,143.26c1.228-8.21,2.004-16.679,2.392-25.277h36.784 c-1.487,11.378-5.172,22.044-10.667,31.547C260.561,146.88,250.994,144.811,241.426,143.26z M255.325,168.214 c-7.37,7.111-15.968,12.929-25.471,17.067c2.844-6.206,5.236-13.123,7.24-20.622C243.236,165.563,249.248,166.791,255.325,168.214z M222.032,96.133h-51.588c0.388-8.145,1.164-15.58,2.263-22.562c7.887,0.711,15.709,1.034,23.596,1.034 c7.887,0,15.774-0.388,23.596-1.099C220.868,80.488,221.644,87.987,222.032,96.133z M172.642,140.545 c-1.099-6.982-1.875-14.481-2.263-22.626h51.588c-0.388,8.145-1.164,15.709-2.263,22.626 C204.125,139.252,188.351,139.252,172.642,140.545z M215.115,162.007c-5.689,19.329-13.576,30.19-18.877,30.19 c-5.301,0-13.123-10.796-18.877-30.125C189.903,161.102,202.573,161.102,215.115,162.007z M162.622,185.216 c-9.503-4.073-18.101-9.891-25.406-17.002c6.012-1.422,12.154-2.651,18.166-3.62C157.385,172.157,159.777,179.009,162.622,185.216z M122.541,149.401c-5.495-9.503-9.18-20.17-10.667-31.547h36.784c0.388,8.598,1.164,17.067,2.392,25.277 C141.482,144.811,131.979,146.88,122.541,149.401z M280.602,96.133h-36.784c-0.388-8.598-1.164-17.067-2.392-25.277 c9.568-1.552,19.071-3.62,28.509-6.271C275.43,74.088,279.179,84.755,280.602,96.133z M237.095,49.458 c-2.004-7.499-4.396-14.481-7.24-20.622c9.503,4.073,18.101,9.891,25.406,17.002C249.313,47.26,243.236,48.424,237.095,49.458z M215.115,51.979c-12.606,0.905-25.212,0.905-37.818,0c5.689-19.329,13.576-30.125,18.877-30.125 C201.539,21.854,209.361,32.779,215.115,51.979z M162.622,28.836c-2.844,6.206-5.236,13.123-7.24,20.622 c-6.077-1.034-12.218-2.133-18.23-3.62C144.456,38.791,153.119,32.908,162.622,28.836z M150.985,70.856 c-1.228,8.21-2.004,16.679-2.327,25.277h-36.784c1.487-11.378,5.172-21.915,10.602-31.418 C131.85,67.236,141.482,69.304,150.985,70.856z"/> <path style="fill:#194F82;" d="M233.151,351.745h-73.956c-6.012,0-10.925-4.849-10.925-10.925c0-6.012,4.848-10.925,10.925-10.925 h73.956c6.012,0,10.925,4.848,10.925,10.925C244.141,346.832,239.228,351.745,233.151,351.745z"/> </g> <path style="fill:#FFC10D;" d="M82.266,192.391h25.277c6.012,0,10.925,4.848,10.925,10.925c0,6.012-4.848,10.925-10.925,10.925 H82.266v25.794h7.111c6.012,0,10.925,4.848,10.925,10.925c0,6.012-4.848,10.925-10.925,10.925h-7.111v5.43h228.008V117.143h-7.564 c-5.107,54.238-50.941,96.84-106.473,96.84s-101.301-42.602-106.473-96.84h-7.564v75.248H82.266z"/> </g>
</svg>