
        <svg xmlns="http://www.w3.org/2000/svg" xmlns:xlink="http://www.w3.org/1999/xlink" version="1.1" width="3250" 
        height="1137.5" viewBox="0 0 3250 1137.5">
			
			<g transform="scale(12.5) translate(10, 10)">
				<defs id="SvgjsDefs4121"></defs><g id="SvgjsG4122" featureKey="rootContainer" transform="matrix(1,0,0,1,0,0)" fill="#2b2e4a"><rect xmlns="http://www.w3.org/2000/svg" width="240" height="71" rx="10" ry="10"></rect></g><g id="SvgjsG4123" featureKey="nameFeature-0" transform="matrix(1.0506408875748041,0,0,1.0506408875748041,18.15087179739573,8.316873450404486)" fill="#ffffff"><path d="M29.36 11.120000000000001 l0 25.56 c0 1.24 0.04 2.24 0.16 3.32 l-7.44 0 c-0.12 -1.12 -0.16 -2.2 -0.16 -3.32 c-1.76 2.08 -4 4.08 -9 4.08 c-6.36 0 -11.16 -4.04 -11.16 -10.92 c0 -6.64 4.64 -10.68 11.36 -10.68 c4.44 0 7 1.8 8.56 3.4 l0 -11.44 l7.68 0 z M9.92 29.84 c0 3.24 1.84 6.28 5.8 6.28 c3.48 0 5.96 -2.44 5.96 -6 c0 -3.88 -2.48 -6.32 -5.96 -6.32 c-3.4 0 -5.8 2.52 -5.8 6.04 z M42.52 29.96 c0 4.12 2.8 6.4 6.4 6.4 s6.4 -2.28 6.4 -6.4 s-2.8 -6.4 -6.4 -6.4 s-6.4 2.28 -6.4 6.4 z M34.36 29.96 c0 -4.76 3.24 -10.8 14.56 -10.8 s14.56 6.04 14.56 10.8 s-3.24 10.8 -14.56 10.8 s-14.56 -6.04 -14.56 -10.8 z M68.48 36.68 l0 -25.56 l7.68 0 l0 11.44 c1.56 -1.6 4.12 -3.4 8.56 -3.4 c6.72 0 11.36 4.04 11.36 10.68 c0 6.88 -4.8 10.92 -11.16 10.92 c-5 0 -7.24 -2 -9 -4.08 c0 1.12 -0.04 2.2 -0.16 3.32 l-7.44 0 c0.12 -1.08 0.16 -2.08 0.16 -3.32 z M87.92000000000002 29.84 c0 -3.52 -2.4 -6.04 -5.8 -6.04 c-3.48 0 -5.96 2.44 -5.96 6.32 c0 3.56 2.48 6 5.96 6 c3.96 0 5.8 -3.04 5.8 -6.28 z M101.08 36.68 l0 -25.56 l7.68 0 l0 11.44 c1.56 -1.6 4.12 -3.4 8.56 -3.4 c6.72 0 11.36 4.04 11.36 10.68 c0 6.88 -4.8 10.92 -11.16 10.92 c-5 0 -7.24 -2 -9 -4.08 c0 1.12 -0.04 2.2 -0.16 3.32 l-7.44 0 c0.12 -1.08 0.16 -2.08 0.16 -3.32 z M120.52000000000001 29.84 c0 -3.52 -2.4 -6.04 -5.8 -6.04 c-3.48 0 -5.96 2.44 -5.96 6.32 c0 3.56 2.48 6 5.96 6 c3.96 0 5.8 -3.04 5.8 -6.28 z M140.35999999999999 29.96 c0 4.12 2.8 6.4 6.4 6.4 s6.4 -2.28 6.4 -6.4 s-2.8 -6.4 -6.4 -6.4 s-6.4 2.28 -6.4 6.4 z M132.2 29.96 c0 -4.76 3.24 -10.8 14.56 -10.8 s14.56 6.04 14.56 10.8 s-3.24 10.8 -14.56 10.8 s-14.56 -6.04 -14.56 -10.8 z M163.67999999999998 40 l9 -10.6 l-7.88 -9.48 l9.92 0 l3.64 5.72 l4.08 -5.72 l8.88 0 l-8 9.48 l8.8 10.6 l-9.92 0 l-4.76 -7.04 l-5.12 7.04 l-8.64 0 z"></path></g>
			</g>
		</svg>
	